<?xml version="1.0" encoding="UTF-8"?>
<svg id="Capa_2" data-name="Capa 2" xmlns="http://www.w3.org/2000/svg" xmlns:xlink="http://www.w3.org/1999/xlink" viewBox="0 0 438.26 454.54">
  <defs>
    <style>
      .cls-1, .cls-2, .cls-3, .cls-4 {
        fill: none;
      }

      .cls-2 {
        stroke: #352d13;
      }

      .cls-2, .cls-3, .cls-4 {
        stroke-miterlimit: 10;
      }

      .cls-2, .cls-4 {
        stroke-width: .4px;
      }

      .cls-3 {
        stroke-width: .4px;
      }

      .cls-3, .cls-4 {
        stroke: #2b2717;
      }

      .cls-5 {
        fill: #fc85ff;
      }

      .cls-6 {
        fill: #ff00fe;
      }

      .cls-7 {
        clip-path: url(#clippath);
      }
    </style>
    <clipPath id="clippath">
      <rect class="cls-1" width="438.26" height="454.54"/>
    </clipPath>
  </defs>
  <g id="Capa_1-2" data-name="Capa 1">
    <g class="cls-7">
      <path class="cls-6" d="M302.96,316.15v113.59c0,2.49-2.02,4.52-4.52,4.52h-50.1c-2.49,0-4.52-2.02-4.52-4.52v-113.59c0-2.49,2.02-4.52,4.52-4.52h50.1c2.49,0,4.52,2.03,4.52,4.52"/>
      <path class="cls-6" d="M419.65,279.25c0,4.99-4.05,9.04-9.04,9.04H27.65c-4.99,0-9.04-4.05-9.04-9.04V84.91c0-4.99,4.04-9.04,9.04-9.04h382.96c4.99,0,9.04,4.04,9.04,9.04v194.35ZM429.03.2H9.24C4.24.2.2,4.24.2,9.23v436.07c0,4.99,4.04,9.04,9.04,9.04h96.76v-138.45c0-8.04,6.52-14.56,14.57-14.56h202.66c9.03,0,16.35,7.32,16.35,16.35v128.52h9.77l8.14,8.14h60.33l20.23-20.24V9.23c0-4.99-4.04-9.03-9.03-9.03"/>
      <path class="cls-3" d="M419.65,279.25c0,4.99-4.05,9.04-9.04,9.04H27.65c-4.99,0-9.04-4.05-9.04-9.04V84.91c0-4.99,4.04-9.04,9.04-9.04h382.96c4.99,0,9.04,4.04,9.04,9.04v194.35ZM429.03.2H9.24C4.24.2.2,4.24.2,9.23v436.07c0,4.99,4.04,9.04,9.04,9.04h96.76v-138.45c0-8.04,6.52-14.56,14.57-14.56h202.66c9.03,0,16.35,7.32,16.35,16.35v128.52h9.77l8.14,8.14h60.33l20.23-20.24V9.23c0-4.99-4.04-9.03-9.03-9.03Z"/>
      <path class="cls-2" d="M248.34,311.63h50.1c2.49,0,4.52,2.02,4.52,4.52v113.59c0,2.49-2.02,4.52-4.52,4.52h-50.1c-2.49,0-4.52-2.02-4.52-4.52v-113.59c0-2.49,2.02-4.52,4.52-4.52Z"/>
      <path class="cls-4" d="M395.74.2v51.92c0,9.98-8.09,18.07-18.07,18.07H54.08c-9.98,0-18.07-8.1-18.07-18.07V.2h359.74Z"/>
      <rect class="cls-2" x="18.61" y="75.87" width="401.04" height="212.42" rx="9.04" ry="9.04"/>
      <path class="cls-4" d="M61.31,301.33h59.25c-8.05,0-14.57,6.52-14.57,14.56v138.45h-61.04v-136.65c0-9.03,7.32-16.35,16.35-16.35Z"/>
      <path class="cls-2" d="M302.96,316.15v113.59c0,2.49-2.02,4.52-4.52,4.52h-50.1c-2.49,0-4.52-2.02-4.52-4.52v-113.59c0-2.49,2.02-4.52,4.52-4.52h50.1c2.49,0,4.52,2.03,4.52,4.52ZM302.96,316.15v113.59c0,2.49-2.02,4.52-4.52,4.52h-50.1c-2.49,0-4.52-2.02-4.52-4.52v-113.59c0-2.49,2.02-4.52,4.52-4.52h50.1c2.49,0,4.52,2.03,4.52,4.52ZM302.96,316.15v113.59c0,2.49-2.02,4.52-4.52,4.52h-50.1c-2.49,0-4.52-2.02-4.52-4.52v-113.59c0-2.49,2.02-4.52,4.52-4.52h50.1c2.49,0,4.52,2.03,4.52,4.52Z"/>
      <path class="cls-5" d="M302.96,429.75c0,2.5-2.02,4.52-4.52,4.52h-50.1c-2.5,0-4.52-2.02-4.52-4.52v-113.59c0-2.5,2.02-4.52,4.52-4.52h50.1c2.49,0,4.52,2.02,4.52,4.52v113.59ZM323.23,301.33H120.57c-8.05,0-14.57,6.52-14.57,14.56v138.45h233.58v-136.65c0-9.03-7.32-16.35-16.35-16.35"/>
      <path class="cls-4" d="M302.96,429.75c0,2.5-2.02,4.52-4.52,4.52h-50.1c-2.5,0-4.52-2.02-4.52-4.52v-113.59c0-2.5,2.02-4.52,4.52-4.52h50.1c2.49,0,4.52,2.02,4.52,4.52v113.59ZM323.23,301.33H120.57c-8.05,0-14.57,6.52-14.57,14.56v138.45h233.58v-136.65c0-9.03-7.32-16.35-16.35-16.35Z"/>
    </g>
  </g>
</svg>